<svg width="15" height="15" viewBox="0 0 15 15" fill="none" xmlns="http://www.w3.org/2000/svg">
<g clip-path="url(#clip0_717_41949)">
<rect width="15" height="15" fill="white"/>
<path fill-rule="evenodd" clip-rule="evenodd" d="M15 1.18197C15 0.529188 14.4708 0 13.818 0H1.18197C0.529188 0 0 0.529188 0 1.18197V13.818C0 14.4708 0.529188 15 1.18197 15H13.818C14.4708 15 15 14.4708 15 13.818V1.18197ZM7.50001 10.9152C9.38619 10.9152 10.9152 9.38616 10.9152 7.49998C10.9152 5.61381 9.38619 4.08476 7.50001 4.08476C5.61383 4.08476 4.08479 5.61381 4.08479 7.49998C4.08479 9.38616 5.61383 10.9152 7.50001 10.9152Z" fill="black"/>
<circle cx="7.5" cy="7.49997" r="3.41522" fill="white"/>
</g>
<defs>
<clipPath id="clip0_717_41949">
<rect width="15" height="15" fill="white"/>
</clipPath>
</defs>
</svg>
